<svg xmlns="http://www.w3.org/2000/svg" width="311.885" height="303.985" viewBox="0 0 311.885 303.985">
  <path id="Icon_awesome-arrow-right" data-name="Icon awesome-arrow-right" d="M132.606,23.008,148.059,7.555a16.637,16.637,0,0,1,23.6,0L306.978,142.806a16.637,16.637,0,0,1,0,23.6L171.657,301.725a16.637,16.637,0,0,1-23.6,0l-15.453-15.453a16.725,16.725,0,0,1,.278-23.876l83.88-79.912H16.706A16.666,16.666,0,0,1,0,165.777V143.5A16.666,16.666,0,0,1,16.706,126.8H216.764L132.885,46.884A16.6,16.6,0,0,1,132.606,23.008Z" transform="translate(311.885 306.632) rotate(180)" fill="red"/>
</svg>