<svg xmlns="http://www.w3.org/2000/svg" width="293.714" height="286.273" viewBox="0 0 293.714 286.273">
  <path id="Icon_awesome-arrow-right" data-name="Icon awesome-arrow-right" d="M124.88,21.822,139.433,7.269a15.668,15.668,0,0,1,22.223,0L289.092,134.64a15.668,15.668,0,0,1,0,22.223L161.656,284.3a15.668,15.668,0,0,1-22.223,0L124.88,269.746a15.751,15.751,0,0,1,.262-22.485l78.992-75.256H15.733A15.7,15.7,0,0,1,0,156.273V135.3a15.7,15.7,0,0,1,15.733-15.733h188.4L125.142,44.307A15.637,15.637,0,0,1,124.88,21.822Z" transform="translate(0 -2.647)" fill="red"/>
</svg>
